<svg xmlns="http://www.w3.org/2000/svg" viewBox="0 0 64 64" width="32" height="32">
  <defs>
    <linearGradient id="starGradient" x1="0%" y1="0%" x2="100%" y2="100%">
      <stop offset="0%" style="stop-color:#ffd700;stop-opacity:1" />
      <stop offset="100%" style="stop-color:#ffb347;stop-opacity:1" />
    </linearGradient>
  </defs>
  
  <!-- 主要星座连线 -->
  <g stroke="#4682b4" stroke-width="1.5" stroke-opacity="0.8" fill="none">
    <path d="M10,20 L20,15 L35,25 L50,10 L45,30" />
    <path d="M20,45 L35,35 L50,40" />
    <path d="M15,50 L25,35" />
  </g>
  
  <!-- 星星 -->
  <g fill="url(#starGradient)" stroke="#ffd700" stroke-width="0.5">
    <!-- 主要星星 -->
    <circle cx="10" cy="20" r="2.5" />
    <circle cx="20" cy="15" r="2" />
    <circle cx="35" cy="25" r="3" />
    <circle cx="50" cy="10" r="2" />
    <circle cx="45" cy="30" r="2.5" />
    
    <!-- 次要星星 -->
    <circle cx="20" cy="45" r="2" />
    <circle cx="35" cy="35" r="2.5" />
    <circle cx="50" cy="40" r="2" />
    <circle cx="15" cy="50" r="1.5" />
    <circle cx="25" cy="35" r="1.5" />
    
    <!-- 装饰星星 -->
    <circle cx="30" cy="12" r="1" />
    <circle cx="55" cy="25" r="1" />
    <circle cx="12" cy="35" r="1" />
    <circle cx="40" cy="50" r="1" />
  </g>
  
  <!-- 星星内部高光 -->
  <g fill="#ffffff" opacity="0.6">
    <circle cx="10" cy="20" r="1" />
    <circle cx="35" cy="25" r="1.2" />
    <circle cx="45" cy="30" r="1" />
    <circle cx="35" cy="35" r="1" />
  </g>
</svg> 